mtllib Router_XLSatu.mtl
usemtl RouterBody
o Body
v -5.0000 -0.7500 3.5000
v 5.0000 -0.7500 3.5000
v 5.0000 0.7500 3.5000
v -5.0000 0.7500 3.5000
v -5.0000 -0.7500 -3.5000
v 5.0000 -0.7500 -3.5000
v 5.0000 0.7500 -3.5000
v -5.0000 0.7500 -3.5000
f 1 2 3 4
f 6 5 8 7
f 5 6 2 1
f 4 3 7 8
f 5 1 4 8
f 2 6 7 3
usemtl Antenna
o Antennas
v -3.7000 0.5000 -2.3000
v -3.3000 0.5000 -2.3000
v -3.3000 6.5000 -2.3000
v -3.7000 6.5000 -2.3000
v -3.7000 0.5000 -2.7000
v -3.3000 0.5000 -2.7000
v -3.3000 6.5000 -2.7000
v -3.7000 6.5000 -2.7000
f 9 10 11 12
f 14 13 16 15
f 13 14 10 9
f 12 11 15 16
f 13 9 12 16
f 10 14 15 11
v 3.3000 0.5000 -2.3000
v 3.7000 0.5000 -2.3000
v 3.7000 6.5000 -2.3000
v 3.3000 6.5000 -2.3000
v 3.3000 0.5000 -2.7000
v 3.7000 0.5000 -2.7000
v 3.7000 6.5000 -2.7000
v 3.3000 6.5000 -2.7000
f 17 18 19 20
f 22 21 24 23
f 21 22 18 17
f 20 19 23 24
f 21 17 20 24
f 18 22 23 19
v -4.7000 0.5000 1.2000
v -4.3000 0.5000 1.2000
v -4.3000 6.5000 1.2000
v -4.7000 6.5000 1.2000
v -4.7000 0.5000 0.8000
v -4.3000 0.5000 0.8000
v -4.3000 6.5000 0.8000
v -4.7000 6.5000 0.8000
f 25 26 27 28
f 30 29 32 31
f 29 30 26 25
f 28 27 31 32
f 29 25 28 32
f 26 30 31 27
v 4.3000 0.5000 1.2000
v 4.7000 0.5000 1.2000
v 4.7000 6.5000 1.2000
v 4.3000 6.5000 1.2000
v 4.3000 0.5000 0.8000
v 4.7000 0.5000 0.8000
v 4.7000 6.5000 0.8000
v 4.3000 6.5000 0.8000
f 33 34 35 36
f 38 37 40 39
f 37 38 34 33
f 36 35 39 40
f 37 33 36 40
f 34 38 39 35
usemtl LED
o LEDs
v -2.1000 -0.0500 3.6000
v -1.9000 -0.0500 3.6000
v -1.9000 0.0500 3.6000
v -2.1000 0.0500 3.6000
v -2.1000 -0.0500 3.5000
v -1.9000 -0.0500 3.5000
v -1.9000 0.0500 3.5000
v -2.1000 0.0500 3.5000
f 41 42 43 44
f 46 45 48 47
f 45 46 42 41
f 44 43 47 48
f 45 41 44 48
f 42 46 47 43
v -1.1000 -0.0500 3.6000
v -0.9000 -0.0500 3.6000
v -0.9000 0.0500 3.6000
v -1.1000 0.0500 3.6000
v -1.1000 -0.0500 3.5000
v -0.9000 -0.0500 3.5000
v -0.9000 0.0500 3.5000
v -1.1000 0.0500 3.5000
f 49 50 51 52
f 54 53 56 55
f 53 54 50 49
f 52 51 55 56
f 53 49 52 56
f 50 54 55 51
v -0.1000 -0.0500 3.6000
v 0.1000 -0.0500 3.6000
v 0.1000 0.0500 3.6000
v -0.1000 0.0500 3.6000
v -0.1000 -0.0500 3.5000
v 0.1000 -0.0500 3.5000
v 0.1000 0.0500 3.5000
v -0.1000 0.0500 3.5000
f 57 58 59 60
f 62 61 64 63
f 61 62 58 57
f 60 59 63 64
f 61 57 60 64
f 58 62 63 59
v 0.9000 -0.0500 3.6000
v 1.1000 -0.0500 3.6000
v 1.1000 0.0500 3.6000
v 0.9000 0.0500 3.6000
v 0.9000 -0.0500 3.5000
v 1.1000 -0.0500 3.5000
v 1.1000 0.0500 3.5000
v 0.9000 0.0500 3.5000
f 65 66 67 68
f 70 69 72 71
f 69 70 66 65
f 68 67 71 72
f 69 65 68 72
f 66 70 71 67
v 1.9000 -0.0500 3.6000
v 2.1000 -0.0500 3.6000
v 2.1000 0.0500 3.6000
v 1.9000 0.0500 3.6000
v 1.9000 -0.0500 3.5000
v 2.1000 -0.0500 3.5000
v 2.1000 0.0500 3.5000
v 1.9000 0.0500 3.5000
f 73 74 75 76
f 78 77 80 79
f 77 78 74 73
f 76 75 79 80
f 77 73 76 80
f 74 78 79 75
